<svg viewBox="0 0 1080 1080" xmlns="http://www.w3.org/2000/svg"><g transform="matrix(.1 0 0 -.1 0 1080)"><path d="m9190.4 5120c0 1999.5-1620.9 3620.4-3620.4 3620.4s-3620.4-1620.9-3620.4-3620.4 1620.9-3620.4 3620.4-3620.4 3620.4 1620.9 3620.4 3620.4" fill="#000080"/><path d="m8130 6619.6c0 585.64-474.75 1060.4-1060.4 1060.4-585.63 0-1060.4-474.75-1060.4-1060.4 0-585.63 474.75-1060.4 1060.4-1060.4 585.64 0 1060.4 474.75 1060.4 1060.4" fill="#fff"/><path d="m10251 8740.4c0 585.63-474.78 1060.4-1060.4 1060.4-585.64 0-1060.4-474.75-1060.4-1060.4 0-585.64 474.75-1060.4 1060.4-1060.4 585.63 0 1060.4 474.75 1060.4 1060.4" fill="#000080"/><g transform="scale(10)"><g transform="matrix(1 0 0 -1 285.25 330.98)" fill="#fff"><path d="m173.67 0v-26.718h-117.3v-210.82h-30.303v237.53z"/><path d="m338.22 0v-170.74h-27.044v94.166c0 34.864-18.247 57.673-46.594 57.673-21.505 0-35.19-13.033-35.19-33.561v-118.28h-27.044v129.03c0 28.348 21.179 46.594 54.414 46.594 25.089 0 41.055-8.7975 57.021-31.28v26.393z"/><path d="m536.65-0.65167v-20.528c-2.9325 0.65167-4.2358 0.65167-5.865 0.65167-9.4492 0-14.663-4.8875-14.663-13.359v-95.144c0-30.303-22.157-46.594-64.19-46.594-41.381 0-66.796 15.966-68.425 55.392h27.37c2.2808-20.853 14.663-30.303 40.078-30.303 24.438 0 38.123 9.1234 38.123 25.415v7.1684c0 11.404-6.8425 16.292-28.348 18.898-38.449 4.8875-44.314 6.1909-54.74 10.427-19.876 8.1459-29.977 23.46-29.977 44.314 0 30.954 21.505 49.201 56.044 49.201 21.831 0 43.01-9.1234 57.999-25.089 2.9325 13.033 14.663 22.483 28.022 22.483 5.5392 0 9.775-0.65167 18.573-2.9325zm-47.572-58.324c0 24.438-24.763 40.078-51.156 40.078-21.179 0-33.561-7.4942-33.561-26.067 0-17.921 12.056-25.741 41.055-29.977 28.673-3.91 34.539-5.2134 43.662-9.4492z"/></g></g><g transform="scale(10)" fill="#808080"><g transform="matrix(-.24469 .9696 .9696 .24469 145.91 370.89)"><path d="m69.468 0v-10.687h-46.92v-84.326h-12.121v95.014z"/></g><g transform="matrix(-.091469 .99581 .99581 .091469 129 436.3)"><path d="m62.821 0v-68.295h-10.818v37.667c0 13.946-7.2987 23.069-18.638 23.069-8.602 0-14.076-5.2134-14.076-13.424v-47.311h-10.818v51.612c0 11.339 8.4717 18.638 21.766 18.638 10.036 0 16.422-3.519 22.808-12.512v10.557z"/></g><g transform="matrix(.063962 .99795 .99795 -.063962 122.44 503.54)"><path d="m69.729-0.26067v-8.211c-1.173 0.26067-1.6943 0.26067-2.346 0.26067-3.7797 0-5.865-1.955-5.865-5.3437v-38.058c0-12.121-8.8627-18.638-25.676-18.638-16.552 0-26.718 6.3864-27.37 22.157h10.948c0.91234-8.3414 5.865-12.121 16.031-12.121 9.775 0 15.249 3.6494 15.249 10.166v2.8673c0 4.5617-2.737 6.5167-11.339 7.5594-15.379 1.955-17.725 2.4763-21.896 4.1707-7.9504 3.2583-11.991 9.384-11.991 17.725 0 12.382 8.602 19.68 22.417 19.68 8.7324 0 17.204-3.6494 23.199-10.036 1.173 5.2134 5.865 8.993 11.209 8.993 2.2157 0 3.91-0.26067 7.429-1.173zm-19.029-23.33c0 9.775-9.9054 16.031-20.462 16.031-8.4717 0-13.424-2.9977-13.424-10.427 0-7.1684 4.8224-10.296 16.422-11.991 11.469-1.564 13.815-2.0853 17.465-3.7797z"/></g><g transform="matrix(.29304 .9561 .9561 -.29304 132.27 604.28)"><path d="m68.165-33.496c0-22.939-11.209-36.754-29.325-36.754-9.2537 0-16.683 4.1707-21.766 12.251v-10.296h-9.9054v96.708h10.818v-36.624c5.7347 7.038 12.121 10.166 20.984 10.166 17.595 0 29.195-13.685 29.195-35.451zm-11.339-0.26067c0 15.51-7.9504 25.545-19.811 25.545-11.469 0-19.029-9.384-19.029-25.415s7.5594-26.458 19.029-26.458c11.991 0 19.811 10.036 19.811 26.327z"/></g><g transform="matrix(.39519 .9186 .9186 -.39519 153.41 669.88)"><path d="m19.68 0v-95.013h-10.818v95.013z"/></g><g transform="matrix(.49266 .87022 .87022 -.49266 162.23 693.85)"><path d="m62.821 0v-68.295h-10.818v37.667c0 13.946-7.2987 23.069-18.638 23.069-8.602 0-14.076-5.2134-14.076-13.424v-47.311h-10.818v51.612c0 11.339 8.4717 18.638 21.766 18.638 10.036 0 16.422-3.519 22.808-12.512v10.557z"/></g><g transform="matrix(.62157 .78336 .78336 -.62157 195.19 752.83)"><path d="m63.733-11.209v-57.086h-10.036v9.9054c-5.474-8.0807-12.121-11.86-20.853-11.86-17.334 0-29.064 14.597-29.064 36.754 0 21.505 12.121 35.451 28.152 35.451 8.602 0 14.597-3.6494 21.766-12.251v4.5617c0 18.116-7.429 25.024-20.071 25.024-8.602 0-15.249-3.128-16.552-11.469h-11.078c1.173 12.903 11.209 20.593 27.24 20.593 21.375 0 30.498-9.5144 30.498-39.622zm-11.078-22.548c0 16.292-7.038 25.676-18.507 25.676-11.86 0-19.029-9.5144-19.029-26.067 0-16.422 7.2987-26.067 18.898-26.067 11.73 0 18.638 9.9054 18.638 26.458z"/></g><g transform="matrix(.703 .71119 .71119 -.703 238.8 806.2)"><path d="m19.941 0v-68.295h-10.818v68.295zm1.4337-78.591v-13.555h-13.555v13.555z"/></g><g transform="matrix(.77611 .6306 .6306 -.77611 255.75 825.3)"><path d="m63.473 0v-51.612c0-11.339-8.4717-18.638-21.635-18.638-10.166 0-16.683 3.91-22.678 13.424v-11.469h-10.036v68.295h10.818v-37.667c0-13.946 7.5594-23.069 18.638-23.069 8.602 0 14.076 5.2134 14.076 13.424v47.311z"/></g><g transform="matrix(.88336 .4687 .4687 -.88336 337.99 886.11)"><path d="m33.626-59.432v-8.8627h-11.339v-10.687c0-4.5617 2.6067-6.9077 7.5594-6.9077 0.91234 0 1.3033 0 3.7797 0.13033v-8.993c-2.4763-0.52134-3.91-0.65167-6.1257-0.65167-10.036 0-16.031 5.7347-16.031 15.51v11.6h-9.1234v8.8627h9.1234v59.432h10.818v-59.432z"/></g><g transform="matrix(.93192 .36266 .36266 -.93192 366.16 902.5)"><path d="m66.47-33.626c0-23.59-11.339-36.624-31.019-36.624-19.159 0-30.759 13.164-30.759 36.103 0 22.939 11.469 36.103 30.889 36.103 19.159 0 30.889-13.164 30.889-35.581zm-11.339-0.13033c0 16.031-7.5594 25.676-19.55 25.676-12.121 0-19.55-9.5144-19.55-26.067 0-16.422 7.429-26.067 19.55-26.067 12.251 0 19.55 9.5144 19.55 26.458z"/></g><g transform="matrix(.96972 .24423 .24423 -.96972 430.18 926.71)"><path d="m41.837-58.781v-11.078c-1.8247-0.26067-2.737-0.391-4.1707-0.391-7.038 0-12.382 4.1707-18.638 14.337v-12.382h-9.9054v68.295h10.818v-35.451c0-15.379 5.083-23.069 21.896-23.33z"/></g><g transform="matrix(.99991 .013458 .013458 -.99991 500.48 944.4)"><path d="m92.407 0v-50.179h-39.622v10.687h28.934v2.6067c0 16.943-12.512 28.543-29.846 28.543-21.505 0-34.017-15.64-34.017-38.84 0-23.33 13.294-39.491 33.365-39.491 14.467 0 24.894 8.211 27.5 20.462h12.382c-3.3887-19.289-17.986-31.15-39.752-31.15-29.064 0-45.617 22.417-45.617 50.83 0 29.195 17.856 48.875 43.532 48.875 12.903 0 23.199-4.5617 32.453-14.858l2.9977 12.512z"/></g><g transform="matrix(.98077 -.19518 -.19518 -.98077 595.39 945.98)"><path d="m88.236-34.669h-12.512c-2.8673 17.986-10.427 26.327-26.458 26.327-18.898 0-30.889-14.467-30.889-38.188 0-24.372 11.469-40.143 29.846-40.143 14.858 0 22.678 6.647 25.676 21.114h12.382c-3.7797-20.853-15.77-31.801-36.624-31.801-28.804 0-43.401 23.199-43.401 50.961s14.988 48.745 42.88 48.745c23.199 0 36.233-12.251 39.1-37.015z"/></g><g transform="matrix(.92164 -.38803 -.38803 -.92164 681.7 929.44)"><path d="m88.236-34.669h-12.512c-2.8673 17.986-10.427 26.327-26.458 26.327-18.898 0-30.889-14.467-30.889-38.188 0-24.372 11.469-40.143 29.846-40.143 14.858 0 22.678 6.647 25.676 21.114h12.382c-3.7797-20.853-15.77-31.801-36.624-31.801-28.804 0-43.401 23.199-43.401 50.961s14.988 48.745 42.88 48.745c23.199 0 36.233-12.251 39.1-37.015z"/></g></g><path d="m9623.7 7460.4c410.83-711.57 627.13-1518.8 627.13-2340.4 0-2585.1-2095.7-4680.8-4680.8-4680.8-1967.8 0-3725.5 1230.7-4398.5 3079.9" fill="none" stroke="#808080" stroke-dasharray="408.475" stroke-miterlimit="10" stroke-width="108.61"/></g></svg>
